<?xml version="1.0" encoding="utf-8"?>
<!-- Generator: Adobe Illustrator 18.0.0, SVG Export Plug-In . SVG Version: 6.00 Build 0)  -->
<!DOCTYPE svg PUBLIC "-//W3C//DTD SVG 1.1//EN" "http://www.w3.org/Graphics/SVG/1.1/DTD/svg11.dtd">
<svg version="1.1" id="Layer_1" xmlns="http://www.w3.org/2000/svg" xmlns:xlink="http://www.w3.org/1999/xlink" x="0px" y="0px"
	 viewBox="0 0 612 136" enable-background="new 0 0 612 136" xml:space="preserve">
<g id="t3ZsvF.tif">
	<g>
		<path fill="#FFFFFF" d="M61.9,16.6c-1.8,3.3-3.4,6.2-5,9.3c-6.4-4.1-13.5-5.5-20.8-5.7c-3.3-0.1-6.5,0.2-9.6,1.4
			c-1.9,0.7-3.7,1.7-4,4.1c-0.3,2.2,0.7,3.8,3,4.5c2.5,0.7,5,1.1,7.6,1.5c5,0.7,10.1,1,15.2,1.8c4,0.6,7.7,2,11.1,4.2
			c6.7,4.5,8.6,15.9-0.1,22.3c-4,3-8.6,4.7-13.5,5.5c-11.3,2-22.1,0.8-32.5-4.3c-2.3-1.1-4.4-2.7-6.7-4.1c1.7-3.1,3.2-6,4.8-9.1
			c3.3,2.9,7.1,4.7,11.2,5.9c7.4,2.1,14.9,2.7,22.5,0.7c1.6-0.4,3.2-1.2,4.5-2.1c3-2.2,2.6-6.2-0.9-7.4c-3-1-6.2-1.4-9.3-1.7
			c-6.8-0.7-13.6-1.2-20-3.8c-4.1-1.6-7.6-3.9-9.5-8.1c-2.7-6.1-0.6-13.3,5-17.4c3.9-2.8,8.5-4.1,13.2-4.7
			c9.4-1.1,18.6-0.1,27.4,3.7C57.5,14.2,59.6,15.4,61.9,16.6z"/>
		<path fill="#FFFFFF" d="M410.6,64.9c-3.8,0-7.3,0-10.9,0c0-18,0-35.9,0-54.1c2.2,0,4.4,0.2,6.6,0c3.1-0.4,5.2,0.8,7.2,3.2
			c9.2,10.7,18.6,21.2,28,31.8c0.4,0.4,0.8,0.8,1.4,1.5c0-12.3,0-24.3,0-36.4c3.8,0,7.3,0,10.9,0c0,18,0,36,0,54c-3.5,0-7,0-10.4,0
			c-0.4,0-0.8-0.4-1.1-0.8c-8.4-9.5-16.8-19-25.2-28.5c-2.1-2.4-4.2-4.7-6.6-7.4C410.6,40.7,410.6,52.8,410.6,64.9z"/>
		<path fill="#FFFFFF" d="M218.8,64.9c-3.5,0-6.9,0-10.2,0c-0.4,0-1-0.4-1.3-0.7c-8.6-9.7-17.3-19.4-25.9-29.2
			c-1.9-2.1-3.8-4.2-5.9-6.6c0,12.4,0,24.4,0,36.5c-3.7,0-7.3,0-10.9,0c0-18,0-35.9,0-54c3.5,0,7,0,10.5,0c0.4,0,0.8,0.5,1.1,0.8
			c10.2,11.4,20.3,22.9,30.5,34.3c0.3,0.3,0.6,0.7,0.8,1.1c0.1-0.1,0.2-0.1,0.4-0.2c0-12,0-23.9,0-36c3.7,0,7.2,0,10.9,0
			C218.8,28.9,218.8,46.8,218.8,64.9z"/>
		<path fill="#FFFFFF" d="M246.6,64.9c0-18.1,0-36,0-54c0.3,0,0.5-0.1,0.8-0.1c10.4,0,20.7-0.3,31.1,0.2
			c10.9,0.5,21.7,6.3,23.8,20.9c1.1,8,0.2,15.8-4.5,22.7c-4.1,6-10.1,9.3-17.3,10c-4.8,0.5-9.6,0.3-14.4,0.4
			C259.6,65,253.2,64.9,246.6,64.9z M257.6,54c5.9,0,11.8,0,17.6,0c0.8,0,1.5,0,2.3-0.1c4.7-0.5,8.9-2.2,11.6-6.3
			c2.3-3.5,2.8-7.5,2.6-11.6c-0.3-8.5-5.6-13.9-14.1-14.1c-6.4-0.2-12.7-0.1-19.1-0.1c-0.3,0-0.6,0-0.9,0.1
			C257.6,32.5,257.6,43.2,257.6,54z"/>
		<path fill="#FFFFFF" d="M568.9,54c12.5,0,25,0,37.6,0c0,3.7,0,7.2,0,10.8c-16.1,0-32.3,0-48.6,0c0-18,0-35.9,0-53.9
			c16.2,0,32.3,0,48.6,0c0,3.5,0,7,0,10.7c-12.5,0-25,0-37.6,0c0,2.8,0,5.3,0,8.1c7.1,0,14.2,0,21.4,0c0,3.7,0,7.2,0,10.9
			c-7.1,0-14.2,0-21.4,0C568.9,45,568.9,49.4,568.9,54z"/>
		<path fill="#FFFFFF" d="M317,64.9c1.9-4,3.7-7.7,5.5-11.4c6.7-13.8,13.4-27.7,20.1-41.5c0.4-0.9,0.9-1.3,1.9-1.2
			c4,0.1,8.1,0,12.1,0c0.8,0,1.2,0.2,1.5,0.9c8.5,17.5,17.1,35,25.7,52.4c0.1,0.2,0.2,0.4,0.3,0.8c-4,0-7.9,0-11.8,0
			c-0.3,0-0.8-0.5-1-0.8c-1.4-2.9-2.9-5.9-4.2-8.8c-0.4-0.8-0.8-1-1.6-1c-10,0-20,0-29.9,0c-0.9,0-1.3,0.3-1.6,1.1
			c-1.3,2.9-2.7,5.8-4.2,8.7c-0.2,0.4-0.8,0.9-1.2,0.9C324.9,65,321.1,64.9,317,64.9z M361.2,43.1c-3.6-7.2-7-14.3-10.6-21.6
			c-3.6,7.3-7.1,14.4-10.6,21.6C347.1,43.1,354,43.1,361.2,43.1z"/>
		<path fill="#FFFFFF" d="M532,48.1c0,4.2,0,8.2,0,12.2c0,0.3-0.5,0.8-0.9,1c-5.8,2.8-11.8,4.6-18.2,5.1c-6.9,0.5-13.7-0.3-20.1-3
			c-9.6-4.1-15.7-11.1-16.9-21.6c-1.5-13.2,4.6-23.7,16.8-29.1c13.1-5.7,25.9-4.6,38.2,2.3c0.4,0.2,0.9,0.8,0.9,1.2
			c0.1,4.1,0,8.3,0,12.6c-0.5-0.3-0.8-0.5-1.2-0.7c-7.2-5.1-15-8.4-24-7.9c-6.3,0.3-11.9,2.6-15.9,7.6c-6.6,8.1-4.7,18.7,4.3,24.2
			c5,3,10.5,3.9,16.2,3.6c7.3-0.4,14-2.9,20-7.1C531.5,48.4,531.6,48.3,532,48.1z"/>
		<path fill="#FFFFFF" d="M129.5,10.8c3.7,0,7.2,0,11,0c0,0.6,0,1.2,0,1.7c0,10.5,0,21,0,31.5c0,11-5.7,18.5-16.5,21.2
			c-8.1,2-16.2,2-24.1-0.9c-8.4-3.1-13.1-9.3-13.4-18.2c-0.4-11.4-0.2-22.9-0.3-34.4c0-1,0.4-1.1,1.2-1.1c2.8,0,5.6,0.1,8.4,0
			c1.2,0,1.5,0.4,1.5,1.6c0,10.3,0,20.6,0,30.9c0,1.2,0,2.3,0.2,3.5c0.7,4.6,3.6,7.1,7.9,8.1c5.5,1.3,11,1.3,16.4-0.1
			c5.2-1.4,7.7-4.7,7.7-10.1c0-10.7,0-21.5,0-32.2C129.5,11.8,129.5,11.4,129.5,10.8z"/>
		<path fill="#FFFFFF" d="M193,103.9c0,6.2,0,12.4,0,18.7c-2.2,0-4.3,0-6.5,0c0-10.1,0-20.1,0-30.4c2.1,0,4.1,0,6.2,0
			c0.3,0,0.6,0.5,0.9,0.9c3.1,4.4,6.1,8.8,9.2,13.1c0.2,0.3,0.5,0.6,0.8,1.1c1.9-2.8,3.8-5.5,5.7-8.2c1.4-2,2.7-4,4.1-5.9
			c0.4-0.5,1.1-0.9,1.7-0.9c1.8-0.1,3.6,0,5.5,0c0,0.5,0.1,1,0.1,1.4c0,9.2,0,18.4,0,27.6c0,1.2-0.4,1.6-1.6,1.5
			c-1.6-0.1-3.3,0-5.1,0c0-6.3,0-12.5,0-18.7c-0.1,0-0.3-0.1-0.4-0.1c-3.3,4.9-6.6,9.7-10.1,14.8c-3.5-5.1-6.9-10-10.3-14.9
			C193.2,103.8,193.1,103.9,193,103.9z"/>
		<path fill="#FFFFFF" d="M367.3,95.3c-1,1.9-1.9,3.6-2.9,5.4c-3.1-1.9-6.5-2.9-10-3.3c-2.8-0.3-5.5-0.1-8.1,0.9
			c-1.1,0.4-2.1,1.1-2,2.5c0.1,1.3,1,2,2.1,2.3c1.5,0.4,3.1,0.7,4.6,0.8c4.1,0.3,8.2,0.6,12.2,2.1c2.5,0.9,4.7,2.3,5.6,5
			c1.2,3.4,0.1,7-2.8,9.2c-3.4,2.6-7.4,3.3-11.5,3.5c-5.4,0.2-10.7-0.4-15.5-3c-1.1-0.6-2-1.4-3.2-2.2c0.9-1.7,1.7-3.3,2.6-5
			c4.4,3.1,9.3,4.4,14.5,4.4c1.8,0,3.5-0.5,5.2-0.9c0.6-0.1,1.3-0.4,1.6-0.8c0.6-0.8,1.5-1.8,1.4-2.6c-0.1-0.7-1.1-1.8-1.9-2
			c-2.1-0.5-4.2-0.7-6.4-1c-3.6-0.4-7.2-0.8-10.5-2.4c-4.1-1.9-5.9-5.6-4.7-10c0.7-2.6,2.5-4.3,4.9-5.3c4.1-1.8,8.5-1.9,12.9-1.6
			c3.6,0.3,7,1.1,10.2,2.9C366.2,94.6,366.6,94.9,367.3,95.3z"/>
		<path fill="#FFFFFF" d="M297.7,92.2c9.4,0,18.7,0,28.1,0c0,1.9,0,3.8,0,5.8c-7.2,0-14.3,0-21.6,0c0,1.7,0,3.3,0,5
			c3.9,0,7.9,0,12,0c0,2.1,0,3.9,0,6c-4,0-8,0-12,0c0,2.6,0,5,0,7.6c7.2,0,14.4,0,21.6,0c0,2.1,0,4,0,6c-9.3,0-18.6,0-28.1,0
			C297.7,112.6,297.7,102.5,297.7,92.2z"/>
		<path fill="#FFFFFF" d="M505.9,122.8c-2.4,0-4.6,0-6.7,0c-0.4,0-1-0.4-1.2-0.8c-0.8-1.4-1.5-2.8-2.1-4.2c-0.3-0.7-0.7-1-1.5-1
			c-5.1,0-10.1,0-15.2,0.1c-0.5,0-1.1,0.4-1.4,0.9c-0.8,1.4-1.3,2.9-2.1,4.2c-0.2,0.4-0.8,0.8-1.3,0.8c-2.2,0.1-4.3,0-6.7,0
			c1.1-2.2,2-4.3,3.1-6.4c3.7-7.7,7.5-15.4,11.2-23.1c0.4-0.9,0.9-1.2,1.9-1.1c2,0.1,4,0,6.1,0.1c0.5,0,1.1,0.4,1.3,0.7
			c4.9,9.7,9.7,19.4,14.5,29.2C505.7,122.3,505.8,122.4,505.9,122.8z M492.7,110c-2-4.1-3.9-8.1-6-12.2c-2,4.2-3.9,8.2-5.8,12.3
			c3.8,0,7.2,0,10.7,0C491.9,110.1,492.2,110.1,492.7,110z"/>
		<path fill="#FFFFFF" d="M445.3,122.8c-4.2-10.2-8.4-20.3-12.6-30.5c2.6,0,4.9,0,7.3,0c3.2,7.9,6.4,15.7,9.7,23.9
			c0.9-2.2,1.7-4.2,2.5-6.1c2.3-5.6,4.6-11.2,6.9-16.8c0.3-0.8,0.7-1.1,1.6-1.1c2,0.1,3.9,0,6.1,0c-0.2,0.6-0.3,1-0.5,1.4
			c-3.8,9.3-7.7,18.5-11.5,27.8c-0.4,1.1-1,1.4-2.1,1.4C450.3,122.7,447.9,122.8,445.3,122.8z"/>
		<path fill="#FFFFFF" d="M101.7,109.1c0,4.7,0,9.1,0,13.6c-2.2,0-4.3,0-6.5,0c0-10.1,0-20.2,0-30.4c9.1,0,18.1,0,27.2,0
			c0,1.9,0,3.8,0,5.8c-6.9,0-13.7,0-20.6,0c0,1.7,0,3.4,0,5.1c3.5,0,7,0,10.6,0c0,2,0,3.9,0,5.9
			C108.8,109.1,105.3,109.1,101.7,109.1z"/>
		<path fill="#FFFFFF" d="M287,92.3c0,1.9,0,3.8,0,5.8c-6.8,0-13.6,0-20.5,0c0,1.7,0,3.3,0,5c3.5,0,7,0,10.5,0c0,2.1,0,3.9,0,6
			c-3.5,0-6.9,0-10.5,0c0,4.6,0,9,0,13.6c-2.3,0-4.4,0-6.6,0c0-10.1,0-20.2,0-30.4C268.9,92.3,277.9,92.3,287,92.3z"/>
		<path fill="#FFFFFF" d="M387.4,98.1c-3.4,0-6.5-0.1-9.6,0c-1.3,0-1.7-0.4-1.6-1.6c0.1-1.4,0-2.8,0-4.3c9.7,0,19.2,0,28.8,0
			c0,1.9,0,3.8,0,5.8c-3.7,0-7.3,0-11.1,0c0,8.3,0,16.4,0,24.6c-2.2,0-4.2,0-6.5,0C387.4,114.6,387.4,106.5,387.4,98.1z"/>
		<path fill="#FFFFFF" d="M513.7,92.2c2.1,0,4.2,0,6.4,0c0,8.1,0,16.2,0,24.5c5.8,0,11.5,0,17.2,0c0,2.1,0,4,0,6
			c-7.9,0-15.7,0-23.6,0C513.7,112.6,513.7,102.4,513.7,92.2z"/>
		<path fill="#FFFFFF" d="M178.5,116.7c0,2.1,0,4,0,6c-7.9,0-15.8,0-23.7,0c0-10.1,0-20.3,0-30.4c2.2,0,4.2,0,6.5,0
			c0,8.1,0,16.2,0,24.5C167.1,116.7,172.8,116.7,178.5,116.7z"/>
		<path fill="#FFFFFF" d="M133.8,122.7c0-10.2,0-20.3,0-30.5c2.1,0,4.2,0,6.4,0c0,10.1,0,20.3,0,30.5
			C138.1,122.7,136,122.7,133.8,122.7z"/>
		<path fill="#FFFFFF" d="M416.9,92.2c2.1,0,4.1,0,6.3,0c0,10.2,0,20.3,0,30.4c-2.1,0-4.1,0-6.3,0
			C416.9,112.6,416.9,102.4,416.9,92.2z"/>
	</g>
</g>
</svg>
